<?xml version="1.0" standalone="no"?><!-- Generator: Gravit.io --><svg xmlns="http://www.w3.org/2000/svg" xmlns:xlink="http://www.w3.org/1999/xlink" style="isolation:isolate" viewBox="0 0 1000 390" width="1000" height="390"><g style="isolation:isolate" id="Test"><line x1="134" y1="363.773" x2="979" y2="363.773" vector-effect="non-scaling-stroke" stroke-width="6" stroke="rgb(116,116,116)" stroke-linejoin="miter" stroke-linecap="square" stroke-miterlimit="3"/><g transform="matrix(1.133,0,0,1.133,21,350.5)"><text transform="matrix(1,0,0,1,0,18.555)" style="font-family:&quot;Roboto&quot;;font-weight:100;font-size:20px;font-style:normal;fill:#000000;stroke:none;">test</text></g><line x1="256.636" y1="153.773" x2="317" y2="366" vector-effect="non-scaling-stroke" stroke-width="6" stroke="rgb(251,244,72)" stroke-linejoin="miter" stroke-linecap="square" stroke-miterlimit="3"/><line x1="456.636" y1="153.773" x2="517" y2="366" vector-effect="non-scaling-stroke" stroke-width="6" stroke="rgb(251,244,72)" stroke-linejoin="miter" stroke-linecap="square" stroke-miterlimit="3"/><line x1="308" y1="223.716" x2="351" y2="365" vector-effect="non-scaling-stroke" stroke-width="6" stroke="rgb(155,194,62)" stroke-linejoin="miter" stroke-linecap="square" stroke-miterlimit="3"/><line x1="458" y1="293.716" x2="480" y2="365" vector-effect="non-scaling-stroke" stroke-width="6" stroke="rgb(255,173,51)" stroke-linejoin="miter" stroke-linecap="square" stroke-miterlimit="3"/><line x1="608" y1="293.716" x2="630" y2="365" vector-effect="non-scaling-stroke" stroke-width="6" stroke="rgb(255,173,51)" stroke-linejoin="miter" stroke-linecap="square" stroke-miterlimit="3"/><line x1="808" y1="293.716" x2="830" y2="365" vector-effect="non-scaling-stroke" stroke-width="6" stroke="rgb(255,173,51)" stroke-linejoin="miter" stroke-linecap="square" stroke-miterlimit="3"/><path d=" M 145 363.773 C 145 357.35 150.214 352.136 156.636 352.136 C 163.059 352.136 168.273 357.35 168.273 363.773 C 168.273 370.195 163.059 375.409 156.636 375.409 C 150.214 375.409 145 370.195 145 363.773 Z " fill="rgb(162,162,162)" vector-effect="non-scaling-stroke" stroke-width="2" stroke="rgb(116,116,116)" stroke-linejoin="miter" stroke-linecap="square" stroke-miterlimit="3"/><path d=" M 305 363.773 C 305 357.35 310.214 352.136 316.636 352.136 C 323.059 352.136 328.273 357.35 328.273 363.773 C 328.273 370.195 323.059 375.409 316.636 375.409 C 310.214 375.409 305 370.195 305 363.773 Z " fill="rgb(162,162,162)" vector-effect="non-scaling-stroke" stroke-width="2" stroke="rgb(116,116,116)" stroke-linejoin="miter" stroke-linecap="square" stroke-miterlimit="3"/><path d=" M 339 363.773 C 339 357.35 344.214 352.136 350.636 352.136 C 357.059 352.136 362.273 357.35 362.273 363.773 C 362.273 370.195 357.059 375.409 350.636 375.409 C 344.214 375.409 339 370.195 339 363.773 Z " fill="rgb(162,162,162)" vector-effect="non-scaling-stroke" stroke-width="2" stroke="rgb(116,116,116)" stroke-linejoin="miter" stroke-linecap="square" stroke-miterlimit="3"/><path d=" M 467 363.773 C 467 357.35 472.214 352.136 478.636 352.136 C 485.059 352.136 490.273 357.35 490.273 363.773 C 490.273 370.195 485.059 375.409 478.636 375.409 C 472.214 375.409 467 370.195 467 363.773 Z " fill="rgb(162,162,162)" vector-effect="non-scaling-stroke" stroke-width="2" stroke="rgb(116,116,116)" stroke-linejoin="miter" stroke-linecap="square" stroke-miterlimit="3"/><path d=" M 618 363.773 C 618 357.35 623.214 352.136 629.636 352.136 C 636.059 352.136 641.273 357.35 641.273 363.773 C 641.273 370.195 636.059 375.409 629.636 375.409 C 623.214 375.409 618 370.195 618 363.773 Z " fill="rgb(162,162,162)" vector-effect="non-scaling-stroke" stroke-width="2" stroke="rgb(116,116,116)" stroke-linejoin="miter" stroke-linecap="square" stroke-miterlimit="3"/><path d=" M 818 363.773 C 818 357.35 823.214 352.136 829.636 352.136 C 836.059 352.136 841.273 357.35 841.273 363.773 C 841.273 370.195 836.059 375.409 829.636 375.409 C 823.214 375.409 818 370.195 818 363.773 Z " fill="rgb(162,162,162)" vector-effect="non-scaling-stroke" stroke-width="2" stroke="rgb(116,116,116)" stroke-linejoin="miter" stroke-linecap="square" stroke-miterlimit="3"/><path d=" M 505 363.773 C 505 357.35 510.214 352.136 516.636 352.136 C 523.059 352.136 528.273 357.35 528.273 363.773 C 528.273 370.195 523.059 375.409 516.636 375.409 C 510.214 375.409 505 370.195 505 363.773 Z " fill="rgb(162,162,162)" vector-effect="non-scaling-stroke" stroke-width="2" stroke="rgb(116,116,116)" stroke-linejoin="miter" stroke-linecap="square" stroke-miterlimit="3"/></g><g style="isolation:isolate" id="Feature 3"><path d=" M 357 83 Q 366.503 293.79 383.942 293.773 C 387.277 293.769 395.442 293.77 407.321 293.773 C 494.585 293.8 782.249 293.974 827.453 293.716 Q 843.844 288.909 857 83" fill="none" vector-effect="non-scaling-stroke" stroke-width="6" stroke="rgb(255,173,51)" stroke-linejoin="miter" stroke-linecap="square" stroke-miterlimit="3"/><g transform="matrix(1.133,0,0,1.133,21,280.5)"><text transform="matrix(1,0,0,1,0,18.555)" style="font-family:&quot;Roboto&quot;;font-weight:100;font-size:20px;font-style:normal;fill:#000000;stroke:none;">feature-3</text></g><path d=" M 395 293.773 C 395 287.35 400.214 282.136 406.636 282.136 C 413.059 282.136 418.273 287.35 418.273 293.773 C 418.273 300.195 413.059 305.409 406.636 305.409 C 400.214 305.409 395 300.195 395 293.773 Z " fill="rgb(255,206,133)" vector-effect="non-scaling-stroke" stroke-width="2" stroke="rgb(255,173,51)" stroke-linejoin="miter" stroke-linecap="square" stroke-miterlimit="3"/><path d=" M 445 293.773 C 445 287.35 450.214 282.136 456.636 282.136 C 463.059 282.136 468.273 287.35 468.273 293.773 C 468.273 300.195 463.059 305.409 456.636 305.409 C 450.214 305.409 445 300.195 445 293.773 Z " fill="rgb(255,206,133)" vector-effect="non-scaling-stroke" stroke-width="2" stroke="rgb(255,173,51)" stroke-linejoin="miter" stroke-linecap="square" stroke-miterlimit="3"/><path d=" M 495 293.773 C 495 287.35 500.214 282.136 506.636 282.136 C 513.059 282.136 518.273 287.35 518.273 293.773 C 518.273 300.195 513.059 305.409 506.636 305.409 C 500.214 305.409 495 300.195 495 293.773 Z " fill="rgb(255,206,133)" vector-effect="non-scaling-stroke" stroke-width="2" stroke="rgb(255,173,51)" stroke-linejoin="miter" stroke-linecap="square" stroke-miterlimit="3"/><path d=" M 545 293.773 C 545 287.35 550.214 282.136 556.636 282.136 C 563.059 282.136 568.273 287.35 568.273 293.773 C 568.273 300.195 563.059 305.409 556.636 305.409 C 550.214 305.409 545 300.195 545 293.773 Z " fill="rgb(255,206,133)" vector-effect="non-scaling-stroke" stroke-width="2" stroke="rgb(255,173,51)" stroke-linejoin="miter" stroke-linecap="square" stroke-miterlimit="3"/><path d=" M 595 293.773 C 595 287.35 600.214 282.136 606.636 282.136 C 613.059 282.136 618.273 287.35 618.273 293.773 C 618.273 300.195 613.059 305.409 606.636 305.409 C 600.214 305.409 595 300.195 595 293.773 Z " fill="rgb(255,206,133)" vector-effect="non-scaling-stroke" stroke-width="2" stroke="rgb(255,173,51)" stroke-linejoin="miter" stroke-linecap="square" stroke-miterlimit="3"/><path d=" M 645 293.773 C 645 287.35 650.214 282.136 656.636 282.136 C 663.059 282.136 668.273 287.35 668.273 293.773 C 668.273 300.195 663.059 305.409 656.636 305.409 C 650.214 305.409 645 300.195 645 293.773 Z " fill="rgb(255,206,133)" vector-effect="non-scaling-stroke" stroke-width="2" stroke="rgb(255,173,51)" stroke-linejoin="miter" stroke-linecap="square" stroke-miterlimit="3"/><path d=" M 695 293.773 C 695 287.35 700.214 282.136 706.636 282.136 C 713.059 282.136 718.273 287.35 718.273 293.773 C 718.273 300.195 713.059 305.409 706.636 305.409 C 700.214 305.409 695 300.195 695 293.773 Z " fill="rgb(255,206,133)" vector-effect="non-scaling-stroke" stroke-width="2" stroke="rgb(255,173,51)" stroke-linejoin="miter" stroke-linecap="square" stroke-miterlimit="3"/><path d=" M 745 293.773 C 745 287.35 750.214 282.136 756.636 282.136 C 763.059 282.136 768.273 287.35 768.273 293.773 C 768.273 300.195 763.059 305.409 756.636 305.409 C 750.214 305.409 745 300.195 745 293.773 Z " fill="rgb(255,206,133)" vector-effect="non-scaling-stroke" stroke-width="2" stroke="rgb(255,173,51)" stroke-linejoin="miter" stroke-linecap="square" stroke-miterlimit="3"/><path d=" M 795 293.773 C 795 287.35 800.214 282.136 806.636 282.136 C 813.059 282.136 818.273 287.35 818.273 293.773 C 818.273 300.195 813.059 305.409 806.636 305.409 C 800.214 305.409 795 300.195 795 293.773 Z " fill="rgb(255,206,133)" vector-effect="non-scaling-stroke" stroke-width="2" stroke="rgb(255,173,51)" stroke-linejoin="miter" stroke-linecap="square" stroke-miterlimit="3"/></g><g style="isolation:isolate" id="Feature 2"><path d=" M 157 84 Q 166.503 223.79 183.942 223.773 C 211.775 223.744 276.095 224.009 327.453 223.716 Q 343.844 218.909 357 84" fill="none" vector-effect="non-scaling-stroke" stroke-width="6" stroke="rgb(155,194,62)" stroke-linejoin="miter" stroke-linecap="square" stroke-miterlimit="3"/><g transform="matrix(1.133,0,0,1.133,21,210.5)"><text transform="matrix(1,0,0,1,0,18.555)" style="font-family:&quot;Roboto&quot;;font-weight:100;font-size:20px;font-style:normal;fill:#000000;stroke:none;">feature-2</text></g><path d=" M 195 223.773 C 195 217.35 200.214 212.136 206.636 212.136 C 213.059 212.136 218.273 217.35 218.273 223.773 C 218.273 230.195 213.059 235.409 206.636 235.409 C 200.214 235.409 195 230.195 195 223.773 Z " fill="rgb(199,221,147)" vector-effect="non-scaling-stroke" stroke-width="2" stroke="rgb(155,194,62)" stroke-linejoin="miter" stroke-linecap="square" stroke-miterlimit="3"/><path d=" M 245 223.773 C 245 217.35 250.214 212.136 256.636 212.136 C 263.059 212.136 268.273 217.35 268.273 223.773 C 268.273 230.195 263.059 235.409 256.636 235.409 C 250.214 235.409 245 230.195 245 223.773 Z " fill="rgb(199,221,147)" vector-effect="non-scaling-stroke" stroke-width="2" stroke="rgb(155,194,62)" stroke-linejoin="miter" stroke-linecap="square" stroke-miterlimit="3"/><path d=" M 295 223.773 C 295 217.35 300.214 212.136 306.636 212.136 C 313.059 212.136 318.273 217.35 318.273 223.773 C 318.273 230.195 313.059 235.409 306.636 235.409 C 300.214 235.409 295 230.195 295 223.773 Z " fill="rgb(199,221,147)" vector-effect="non-scaling-stroke" stroke-width="2" stroke="rgb(155,194,62)" stroke-linejoin="miter" stroke-linecap="square" stroke-miterlimit="3"/></g><g style="isolation:isolate" id="Feature 1"><path d=" M 157 85 C 157.56 89.328 172.112 152.085 184 153.773 Q 371.215 153.536 481.308 153.773 Q 489.923 150.924 508 85" fill="none" vector-effect="non-scaling-stroke" stroke-width="6" stroke="rgb(251,244,72)" stroke-linejoin="miter" stroke-linecap="square" stroke-miterlimit="3"/><g transform="matrix(1.133,0,0,1.133,21,140.5)"><text transform="matrix(1,0,0,1,0,18.555)" style="font-family:&quot;Roboto&quot;;font-weight:100;font-size:20px;font-style:normal;fill:#000000;stroke:none;">feature-1</text></g><path d=" M 195 153.773 C 195 147.35 200.214 142.136 206.636 142.136 C 213.059 142.136 218.273 147.35 218.273 153.773 C 218.273 160.195 213.059 165.409 206.636 165.409 C 200.214 165.409 195 160.195 195 153.773 Z " fill="rgb(255,252,148)" vector-effect="non-scaling-stroke" stroke-width="2" stroke="rgb(251,244,72)" stroke-linejoin="miter" stroke-linecap="square" stroke-miterlimit="3"/><path d=" M 245 153.773 C 245 147.35 250.214 142.136 256.636 142.136 C 263.059 142.136 268.273 147.35 268.273 153.773 C 268.273 160.195 263.059 165.409 256.636 165.409 C 250.214 165.409 245 160.195 245 153.773 Z " fill="rgb(255,252,148)" vector-effect="non-scaling-stroke" stroke-width="2" stroke="rgb(251,244,72)" stroke-linejoin="miter" stroke-linecap="square" stroke-miterlimit="3"/><path d=" M 295 153.773 C 295 147.35 300.214 142.136 306.636 142.136 C 313.059 142.136 318.273 147.35 318.273 153.773 C 318.273 160.195 313.059 165.409 306.636 165.409 C 300.214 165.409 295 160.195 295 153.773 Z " fill="rgb(255,252,148)" vector-effect="non-scaling-stroke" stroke-width="2" stroke="rgb(251,244,72)" stroke-linejoin="miter" stroke-linecap="square" stroke-miterlimit="3"/><path d=" M 345 153.773 C 345 147.35 350.214 142.136 356.636 142.136 C 363.059 142.136 368.273 147.35 368.273 153.773 C 368.273 160.195 363.059 165.409 356.636 165.409 C 350.214 165.409 345 160.195 345 153.773 Z " fill="rgb(255,252,148)" vector-effect="non-scaling-stroke" stroke-width="2" stroke="rgb(251,244,72)" stroke-linejoin="miter" stroke-linecap="square" stroke-miterlimit="3"/><path d=" M 395 153.773 C 395 147.35 400.214 142.136 406.636 142.136 C 413.059 142.136 418.273 147.35 418.273 153.773 C 418.273 160.195 413.059 165.409 406.636 165.409 C 400.214 165.409 395 160.195 395 153.773 Z " fill="rgb(255,252,148)" vector-effect="non-scaling-stroke" stroke-width="2" stroke="rgb(251,244,72)" stroke-linejoin="miter" stroke-linecap="square" stroke-miterlimit="3"/><path d=" M 445 153.773 C 445 147.35 450.214 142.136 456.636 142.136 C 463.059 142.136 468.273 147.35 468.273 153.773 C 468.273 160.195 463.059 165.409 456.636 165.409 C 450.214 165.409 445 160.195 445 153.773 Z " fill="rgb(255,252,148)" vector-effect="non-scaling-stroke" stroke-width="2" stroke="rgb(251,244,72)" stroke-linejoin="miter" stroke-linecap="square" stroke-miterlimit="3"/></g><g style="isolation:isolate" id="Master"><line x1="134" y1="83.773" x2="979" y2="83.773" vector-effect="non-scaling-stroke" stroke-width="6" stroke="rgb(74,134,232)" stroke-linejoin="miter" stroke-linecap="square" stroke-miterlimit="3"/><g transform="matrix(1.133,0,0,1.133,21,70.5)"><text transform="matrix(1,0,0,1,0,18.555)" style="font-family:&quot;Roboto&quot;;font-weight:100;font-size:20px;font-style:normal;fill:#000000;stroke:none;">master</text></g><path d=" M 145 83.773 C 145 77.35 150.214 72.136 156.636 72.136 C 163.059 72.136 168.273 77.35 168.273 83.773 C 168.273 90.195 163.059 95.409 156.636 95.409 C 150.214 95.409 145 90.195 145 83.773 Z " fill="rgb(137,178,245)" vector-effect="non-scaling-stroke" stroke-width="2" stroke="rgb(74,134,232)" stroke-linejoin="miter" stroke-linecap="square" stroke-miterlimit="3"/><path d=" M 345 83.773 C 345 77.35 350.214 72.136 356.636 72.136 C 363.059 72.136 368.273 77.35 368.273 83.773 C 368.273 90.195 363.059 95.409 356.636 95.409 C 350.214 95.409 345 90.195 345 83.773 Z " fill="rgb(137,178,245)" vector-effect="non-scaling-stroke" stroke-width="2" stroke="rgb(74,134,232)" stroke-linejoin="miter" stroke-linecap="square" stroke-miterlimit="3"/><path d=" M 495 83.773 C 495 77.35 500.214 72.136 506.636 72.136 C 513.059 72.136 518.273 77.35 518.273 83.773 C 518.273 90.195 513.059 95.409 506.636 95.409 C 500.214 95.409 495 90.195 495 83.773 Z " fill="rgb(137,178,245)" vector-effect="non-scaling-stroke" stroke-width="2" stroke="rgb(74,134,232)" stroke-linejoin="miter" stroke-linecap="square" stroke-miterlimit="3"/><path d=" M 845 83.773 C 845 77.35 850.214 72.136 856.636 72.136 C 863.059 72.136 868.273 77.35 868.273 83.773 C 868.273 90.195 863.059 95.409 856.636 95.409 C 850.214 95.409 845 90.195 845 83.773 Z " fill="rgb(137,178,245)" vector-effect="non-scaling-stroke" stroke-width="2" stroke="rgb(74,134,232)" stroke-linejoin="miter" stroke-linecap="square" stroke-miterlimit="3"/></g><g style="isolation:isolate" id="Tags"><g style="isolation:isolate" id="v1.0.0"><path d=" M 147.25 10 L 210.75 10 C 211.992 10 213 11.008 213 12.25 L 213 37.75 C 213 38.992 211.992 40 210.75 40 L 197 40 L 164 69 L 181 40 L 147.25 40 C 146.008 40 145 38.992 145 37.75 L 145 12.25 C 145 11.008 146.008 10 147.25 10 Z " fill="rgb(209,209,209)" vector-effect="non-scaling-stroke" stroke-width="3" stroke="rgb(93,93,93)" stroke-linejoin="miter" stroke-linecap="square" stroke-miterlimit="3"/><g transform="matrix(1,0,0,1,153,11.987)"><text transform="matrix(1,0,0,1,0,19.239)" style="font-family:&quot;Open Sans&quot;;font-weight:400;font-size:18px;font-style:normal;fill:#000000;stroke:none;">v1.0.0</text></g></g><g style="isolation:isolate" id="v1.0.1"><path d=" M 347.25 10 L 410.75 10 C 411.992 10 413 11.008 413 12.25 L 413 37.75 C 413 38.992 411.992 40 410.75 40 L 397 40 L 364 69 L 381 40 L 347.25 40 C 346.008 40 345 38.992 345 37.75 L 345 12.25 C 345 11.008 346.008 10 347.25 10 Z " fill="rgb(209,209,209)" vector-effect="non-scaling-stroke" stroke-width="3" stroke="rgb(93,93,93)" stroke-linejoin="miter" stroke-linecap="square" stroke-miterlimit="3"/><g transform="matrix(1,0,0,1,353,11.987)"><text transform="matrix(1,0,0,1,0,19.239)" style="font-family:&quot;Open Sans&quot;;font-weight:400;font-size:18px;font-style:normal;fill:#000000;stroke:none;">v1.0.1</text></g></g><g style="isolation:isolate" id="v1.0.2"><path d=" M 497.25 10 L 560.75 10 C 561.992 10 563 11.008 563 12.25 L 563 37.75 C 563 38.992 561.992 40 560.75 40 L 547 40 L 514 69 L 531 40 L 497.25 40 C 496.008 40 495 38.992 495 37.75 L 495 12.25 C 495 11.008 496.008 10 497.25 10 Z " fill="rgb(209,209,209)" vector-effect="non-scaling-stroke" stroke-width="3" stroke="rgb(93,93,93)" stroke-linejoin="miter" stroke-linecap="square" stroke-miterlimit="3"/><g transform="matrix(1,0,0,1,503,11.987)"><text transform="matrix(1,0,0,1,0,19.239)" style="font-family:&quot;Open Sans&quot;;font-weight:400;font-size:18px;font-style:normal;fill:#000000;stroke:none;">v1.0.2</text></g></g><g style="isolation:isolate" id="v1.0.3"><path d=" M 847.25 10 L 910.75 10 C 911.992 10 913 11.008 913 12.25 L 913 37.75 C 913 38.992 911.992 40 910.75 40 L 897 40 L 864 69 L 881 40 L 847.25 40 C 846.008 40 845 38.992 845 37.75 L 845 12.25 C 845 11.008 846.008 10 847.25 10 Z " fill="rgb(209,209,209)" vector-effect="non-scaling-stroke" stroke-width="3" stroke="rgb(93,93,93)" stroke-linejoin="miter" stroke-linecap="square" stroke-miterlimit="3"/><g transform="matrix(1,0,0,1,853,11.987)"><text transform="matrix(1,0,0,1,0,19.239)" style="font-family:&quot;Open Sans&quot;;font-weight:400;font-size:18px;font-style:normal;fill:#000000;stroke:none;">v1.0.3</text></g></g></g></svg>