<?xml version="1.0" standalone="no"?><!-- Generator: Gravit.io --><svg xmlns="http://www.w3.org/2000/svg" xmlns:xlink="http://www.w3.org/1999/xlink" style="isolation:isolate" viewBox="0 0 600 600" width="600" height="600"><defs><clipPath id="_clipPath_WKA7mJhX5BKevNXqEj5vAOOa4r3SFEyl"><rect width="600" height="600"/></clipPath></defs><g clip-path="url(#_clipPath_WKA7mJhX5BKevNXqEj5vAOOa4r3SFEyl)"><g id="logo-background" style="mix-blend-mode:multiply;"><linearGradient id="_lgradient_2" x1="-4.440892098500626e-14%" y1="3.3306690738754696e-14%" x2="99.99999999999996%" y2="100.00000000000009%"><stop offset="0%" stop-opacity="1" style="stop-color:rgb(72,110,122)"/><stop offset="100%" stop-opacity="1" style="stop-color:rgb(40,85,99)"/></linearGradient><rect x="0.15" y="0" width="599.7" height="600" transform="matrix(0,-1,1,0,0,600)" fill="url(#_lgradient_2)" style="mix-blend-mode:screen;"/><g id="SvgjsG1953"><g id="g13"><g id="g11"><path d=" M 241.389 181.842 C 222.244 181.842 206.842 166.44 206.842 147.295 C 206.842 128.222 222.244 112.748 241.389 112.748 L 281.982 112.748 C 301.127 112.748 316.529 128.222 316.529 147.295 C 316.529 148.375 315.594 149.382 314.514 149.382 C 313.434 149.382 312.427 148.375 312.499 147.295 C 312.499 130.381 298.896 116.85 281.982 116.85 L 241.389 116.85 C 224.475 116.85 210.872 130.381 210.872 147.295 C 210.872 164.209 224.475 177.812 241.389 177.812 L 281.982 177.812 C 283.062 177.74 284.069 178.747 284.069 179.827 C 284.069 180.907 283.062 181.842 281.982 181.842 L 241.389 181.842 Z  M 318.545 181.842 C 299.472 181.842 283.997 166.44 283.997 147.295 C 283.997 146.215 285.005 145.28 286.085 145.28 C 287.164 145.28 288.1 146.215 288.1 147.295 C 288.1 164.209 301.631 177.812 318.545 177.812 L 359.209 177.812 C 376.123 177.812 389.654 164.209 389.654 147.295 C 389.654 130.381 376.123 116.85 359.209 116.85 L 318.545 116.85 C 317.465 116.85 316.529 115.915 316.529 114.835 C 316.529 113.755 317.465 112.748 318.545 112.748 L 359.209 112.748 C 378.282 112.748 393.685 128.222 393.685 147.295 C 393.685 166.44 378.282 181.842 359.209 181.842 L 318.545 181.842 Z " fill="rgb(255,255,255)"/></g></g></g></g><path d=" M 165.706 281.479 L 165.706 281.479 L 165.706 281.479 Q 165.859 283.162 165.936 284.692 L 165.936 284.692 L 165.936 284.692 Q 166.012 286.222 166.012 287.752 L 166.012 287.752 L 166.012 287.752 Q 166.012 289.894 165.859 291.883 L 165.859 291.883 L 165.859 291.883 Q 165.706 293.872 165.4 295.861 L 165.4 295.861 L 165.4 295.861 Q 164.023 305.959 159.204 314.757 L 159.204 314.757 L 159.204 314.757 Q 154.384 323.554 147.117 329.98 L 147.117 329.98 L 147.117 329.98 Q 139.849 336.406 130.516 340.078 L 130.516 340.078 L 130.516 340.078 Q 121.183 343.75 110.626 343.75 L 110.626 343.75 L 110.626 343.75 Q 99.151 343.75 88.977 339.313 L 88.977 339.313 L 88.977 339.313 Q 78.802 334.876 71.305 327.302 L 71.305 327.302 L 71.305 327.302 Q 63.808 319.729 59.447 309.555 L 59.447 309.555 L 59.447 309.555 Q 55.087 299.38 55.087 287.752 L 55.087 287.752 L 55.087 287.752 Q 55.087 276.124 59.447 265.949 L 59.447 265.949 L 59.447 265.949 Q 63.808 255.775 71.305 248.202 L 71.305 248.202 L 71.305 248.202 Q 78.802 240.628 88.977 236.191 L 88.977 236.191 L 88.977 236.191 Q 99.151 231.754 110.626 231.754 L 110.626 231.754 L 110.626 231.754 Q 119.347 231.754 127.227 234.279 L 127.227 234.279 L 127.227 234.279 Q 135.106 236.803 141.685 241.393 L 141.685 241.393 L 141.685 241.393 Q 148.264 245.983 153.389 252.333 L 153.389 252.333 L 153.389 252.333 Q 158.515 258.682 161.728 266.179 L 161.728 266.179 L 142.909 266.179 L 142.909 266.179 Q 137.86 257.611 129.368 252.409 L 129.368 252.409 L 129.368 252.409 Q 120.877 247.207 110.626 247.207 L 110.626 247.207 L 110.626 247.207 Q 102.67 247.207 95.632 250.42 L 95.632 250.42 L 95.632 250.42 Q 88.594 253.633 83.392 259.141 L 83.392 259.141 L 83.392 259.141 Q 78.19 264.649 75.13 271.993 L 75.13 271.993 L 75.13 271.993 Q 72.07 279.337 72.07 287.752 L 72.07 287.752 L 72.07 287.752 Q 72.07 296.167 75.13 303.511 L 75.13 303.511 L 75.13 303.511 Q 78.19 310.855 83.392 316.363 L 83.392 316.363 L 83.392 316.363 Q 88.594 321.871 95.632 325.084 L 95.632 325.084 L 95.632 325.084 Q 102.67 328.297 110.626 328.297 L 110.626 328.297 L 110.626 328.297 Q 117.511 328.297 123.784 325.849 L 123.784 325.849 L 123.784 325.849 Q 130.057 323.401 135.029 319.04 L 135.029 319.04 L 135.029 319.04 Q 140.002 314.68 143.445 308.713 L 143.445 308.713 L 143.445 308.713 Q 146.887 302.746 148.264 295.861 L 148.264 295.861 L 109.096 295.861 L 109.096 281.479 L 148.57 281.479 L 165.706 281.479 Z  M 190.186 343.75 L 190.186 343.75 L 190.186 231.601 L 206.557 231.601 L 206.557 343.75 L 190.186 343.75 Z  M 230.731 247.36 L 230.731 247.36 L 230.731 231.601 L 302.335 231.601 L 302.335 247.36 L 274.642 247.36 L 274.642 343.597 L 258.424 343.597 L 258.424 247.36 L 230.731 247.36 Z  M 381.895 328.297 L 381.895 328.297 L 381.895 328.297 Q 391.687 328.297 399.872 323.63 L 399.872 323.63 L 399.872 323.63 Q 408.058 318.964 413.26 311.161 L 413.26 311.161 L 426.571 321.106 L 426.571 321.106 Q 418.921 331.51 407.37 337.63 L 407.37 337.63 L 407.37 337.63 Q 395.818 343.75 381.895 343.75 L 381.895 343.75 L 381.895 343.75 Q 370.42 343.75 360.322 339.313 L 360.322 339.313 L 360.322 339.313 Q 350.224 334.876 342.727 327.302 L 342.727 327.302 L 342.727 327.302 Q 335.23 319.729 330.87 309.555 L 330.87 309.555 L 330.87 309.555 Q 326.509 299.38 326.509 287.752 L 326.509 287.752 L 326.509 287.752 Q 326.509 276.124 330.87 265.949 L 330.87 265.949 L 330.87 265.949 Q 335.23 255.775 342.727 248.202 L 342.727 248.202 L 342.727 248.202 Q 350.224 240.628 360.322 236.191 L 360.322 236.191 L 360.322 236.191 Q 370.42 231.754 381.895 231.754 L 381.895 231.754 L 381.895 231.754 Q 395.818 231.754 407.37 237.874 L 407.37 237.874 L 407.37 237.874 Q 418.921 243.994 426.571 254.398 L 426.571 254.398 L 413.26 264.343 L 413.26 264.343 Q 408.058 256.54 399.872 251.874 L 399.872 251.874 L 399.872 251.874 Q 391.687 247.207 381.895 247.207 L 381.895 247.207 L 381.895 247.207 Q 373.939 247.207 366.978 250.42 L 366.978 250.42 L 366.978 250.42 Q 360.016 253.633 354.814 259.141 L 354.814 259.141 L 354.814 259.141 Q 349.612 264.649 346.552 271.993 L 346.552 271.993 L 346.552 271.993 Q 343.492 279.337 343.492 287.752 L 343.492 287.752 L 343.492 287.752 Q 343.492 296.167 346.552 303.511 L 346.552 303.511 L 346.552 303.511 Q 349.612 310.855 354.814 316.363 L 354.814 316.363 L 354.814 316.363 Q 360.016 321.871 366.978 325.084 L 366.978 325.084 L 366.978 325.084 Q 373.939 328.297 381.895 328.297 Z  M 450.745 231.601 L 489.913 231.601 L 489.913 231.601 Q 501.235 231.601 511.103 236.038 L 511.103 236.038 L 511.103 236.038 Q 520.972 240.475 528.316 248.125 L 528.316 248.125 L 528.316 248.125 Q 535.66 255.775 539.944 265.949 L 539.944 265.949 L 539.944 265.949 Q 544.228 276.124 544.228 287.752 L 544.228 287.752 L 544.228 287.752 Q 544.228 299.38 540.097 309.555 L 540.097 309.555 L 540.097 309.555 Q 535.966 319.729 528.698 327.302 L 528.698 327.302 L 528.698 327.302 Q 521.431 334.876 511.486 339.313 L 511.486 339.313 L 511.486 339.313 Q 501.541 343.75 489.913 343.75 L 489.913 343.75 L 450.745 343.75 L 450.745 231.601 Z  M 467.116 329.368 L 488.077 329.368 L 488.077 329.368 Q 496.645 329.368 503.836 326.072 L 503.836 326.072 L 503.836 326.072 Q 511.027 322.777 516.229 317.105 L 516.229 317.105 L 516.229 317.105 Q 521.431 311.434 524.338 303.847 L 524.338 303.847 L 524.338 303.847 Q 527.245 296.259 527.245 287.676 L 527.245 287.676 L 527.245 287.676 Q 527.245 279.092 524.338 271.504 L 524.338 271.504 L 524.338 271.504 Q 521.431 263.917 516.153 258.246 L 516.153 258.246 L 516.153 258.246 Q 510.874 252.574 503.683 249.279 L 503.683 249.279 L 503.683 249.279 Q 496.492 245.983 488.077 245.983 L 488.077 245.983 L 467.116 245.983 L 467.116 329.368 Z " fill-rule="evenodd" fill="rgb(255,255,255)"/><path d=" M 366.03 397.07 L 366.03 397.116 L 366.03 397.116 Q 366.03 399.646 365.087 401.854 L 365.087 401.854 L 365.087 401.854 Q 364.144 404.062 362.488 405.718 L 362.488 405.718 L 362.488 405.718 Q 360.832 407.374 358.624 408.317 L 358.624 408.317 L 358.624 408.317 Q 356.416 409.26 353.886 409.26 L 353.886 409.26 L 353.886 409.26 Q 351.356 409.26 349.148 408.317 L 349.148 408.317 L 349.148 408.317 Q 346.94 407.374 345.284 405.718 L 345.284 405.718 L 345.284 405.718 Q 343.628 404.062 342.685 401.854 L 342.685 401.854 L 342.685 401.854 Q 341.742 399.646 341.742 397.116 L 341.742 397.116 L 341.742 397.116 Q 341.742 394.586 342.685 392.378 L 342.685 392.378 L 342.685 392.378 Q 343.628 390.17 345.284 388.514 L 345.284 388.514 L 345.284 388.514 Q 346.94 386.858 349.148 385.915 L 349.148 385.915 L 349.148 385.915 Q 351.356 384.972 353.886 384.972 L 353.886 384.972 L 353.886 384.972 Q 356.002 384.972 357.865 385.639 L 357.865 385.639 L 357.865 385.639 Q 359.728 386.306 361.292 387.502 L 361.292 387.502 L 361.292 368.734 L 366.03 368.734 L 366.03 397.07 Z  M 353.909 404.522 L 353.909 404.522 L 353.909 404.522 Q 355.422 404.522 356.775 403.947 L 356.775 403.947 L 356.775 403.947 Q 358.128 403.372 359.137 402.36 L 359.137 402.36 L 359.137 402.36 Q 360.146 401.348 360.719 399.991 L 360.719 399.991 L 360.719 399.991 Q 361.292 398.634 361.292 397.116 L 361.292 397.116 L 361.292 397.07 L 361.292 397.07 Q 361.292 395.552 360.719 394.218 L 360.719 394.218 L 360.719 394.218 Q 360.146 392.884 359.137 391.872 L 359.137 391.872 L 359.137 391.872 Q 358.128 390.86 356.775 390.285 L 356.775 390.285 L 356.775 390.285 Q 355.422 389.71 353.909 389.71 L 353.909 389.71 L 353.909 389.71 Q 352.396 389.71 351.043 390.285 L 351.043 390.285 L 351.043 390.285 Q 349.69 390.86 348.681 391.872 L 348.681 391.872 L 348.681 391.872 Q 347.672 392.884 347.076 394.241 L 347.076 394.241 L 347.076 394.241 Q 346.48 395.598 346.48 397.116 L 346.48 397.116 L 346.48 397.116 Q 346.48 398.634 347.076 399.991 L 347.076 399.991 L 347.076 399.991 Q 347.672 401.348 348.681 402.36 L 348.681 402.36 L 348.681 402.36 Q 349.69 403.372 351.043 403.947 L 351.043 403.947 L 351.043 403.947 Q 352.396 404.522 353.909 404.522 Z  M 392.664 398.68 L 387.42 398.68 L 378.174 398.68 L 378.174 398.68 Q 378.45 399.922 379.117 401.003 L 379.117 401.003 L 379.117 401.003 Q 379.784 402.084 380.75 402.866 L 380.75 402.866 L 380.75 402.866 Q 381.716 403.648 382.912 404.085 L 382.912 404.085 L 382.912 404.085 Q 384.108 404.522 385.442 404.522 L 385.442 404.522 L 385.442 404.522 Q 387.052 404.522 388.455 403.878 L 388.455 403.878 L 388.455 403.878 Q 389.858 403.234 390.916 402.084 L 390.916 402.084 L 391.79 402.084 L 396.482 402.084 L 396.482 402.084 Q 396.206 402.774 395.815 403.395 L 395.815 403.395 L 395.815 403.395 Q 395.424 404.016 394.964 404.614 L 394.964 404.614 L 394.964 404.614 Q 393.308 406.73 390.824 407.995 L 390.824 407.995 L 390.824 407.995 Q 388.34 409.26 385.442 409.26 L 385.442 409.26 L 385.442 409.26 Q 382.912 409.26 380.704 408.317 L 380.704 408.317 L 380.704 408.317 Q 378.496 407.374 376.84 405.718 L 376.84 405.718 L 376.84 405.718 Q 375.184 404.062 374.241 401.854 L 374.241 401.854 L 374.241 401.854 Q 373.298 399.646 373.298 397.116 L 373.298 397.116 L 373.298 397.116 Q 373.298 394.586 374.241 392.378 L 374.241 392.378 L 374.241 392.378 Q 375.184 390.17 376.84 388.514 L 376.84 388.514 L 376.84 388.514 Q 378.496 386.858 380.704 385.915 L 380.704 385.915 L 380.704 385.915 Q 382.912 384.972 385.442 384.972 L 385.442 384.972 L 385.442 384.972 Q 388.34 384.972 390.824 386.237 L 390.824 386.237 L 390.824 386.237 Q 393.308 387.502 394.964 389.664 L 394.964 389.664 L 394.964 389.664 Q 396.482 391.504 397.172 393.988 L 397.172 393.988 L 397.172 393.988 Q 397.586 395.46 397.586 397.116 L 397.586 397.116 L 397.586 397.116 Q 397.586 397.944 397.448 398.68 L 397.448 398.68 L 392.664 398.68 Z  M 385.442 389.71 L 385.442 389.71 L 385.442 389.71 Q 383.188 389.71 381.417 390.871 L 381.417 390.871 L 381.417 390.871 Q 379.646 392.031 378.726 393.942 L 378.726 393.942 L 389.444 393.942 L 392.158 393.942 L 392.158 393.942 Q 391.928 393.578 391.721 393.214 L 391.721 393.214 L 391.721 393.214 Q 391.514 392.85 391.284 392.532 L 391.284 392.532 L 391.284 392.532 Q 390.226 391.212 388.708 390.461 L 388.708 390.461 L 388.708 390.461 Q 387.19 389.71 385.442 389.71 Z  M 405.59 408.984 L 405.59 408.984 L 405.59 368.826 L 410.328 368.826 L 410.328 408.984 L 405.59 408.984 Z  M 419.022 384.926 L 419.022 384.926 L 423.76 384.926 L 423.76 409.214 L 419.022 409.214 L 419.022 384.926 Z  M 423.76 382.442 L 419.022 382.442 L 419.022 377.704 L 423.76 377.704 L 423.76 382.442 Z  M 447.772 385.018 L 447.772 385.018 L 452.878 385.018 L 444.874 403.372 L 442.298 409.26 L 439.722 403.372 L 431.718 385.018 L 436.824 385.018 L 442.298 397.53 L 447.772 385.018 Z  M 479.512 398.68 L 474.268 398.68 L 465.022 398.68 L 465.022 398.68 Q 465.298 399.922 465.965 401.003 L 465.965 401.003 L 465.965 401.003 Q 466.632 402.084 467.598 402.866 L 467.598 402.866 L 467.598 402.866 Q 468.564 403.648 469.76 404.085 L 469.76 404.085 L 469.76 404.085 Q 470.956 404.522 472.29 404.522 L 472.29 404.522 L 472.29 404.522 Q 473.9 404.522 475.303 403.878 L 475.303 403.878 L 475.303 403.878 Q 476.706 403.234 477.764 402.084 L 477.764 402.084 L 478.638 402.084 L 483.33 402.084 L 483.33 402.084 Q 483.054 402.774 482.663 403.395 L 482.663 403.395 L 482.663 403.395 Q 482.272 404.016 481.812 404.614 L 481.812 404.614 L 481.812 404.614 Q 480.156 406.73 477.672 407.995 L 477.672 407.995 L 477.672 407.995 Q 475.188 409.26 472.29 409.26 L 472.29 409.26 L 472.29 409.26 Q 469.76 409.26 467.552 408.317 L 467.552 408.317 L 467.552 408.317 Q 465.344 407.374 463.688 405.718 L 463.688 405.718 L 463.688 405.718 Q 462.032 404.062 461.089 401.854 L 461.089 401.854 L 461.089 401.854 Q 460.146 399.646 460.146 397.116 L 460.146 397.116 L 460.146 397.116 Q 460.146 394.586 461.089 392.378 L 461.089 392.378 L 461.089 392.378 Q 462.032 390.17 463.688 388.514 L 463.688 388.514 L 463.688 388.514 Q 465.344 386.858 467.552 385.915 L 467.552 385.915 L 467.552 385.915 Q 469.76 384.972 472.29 384.972 L 472.29 384.972 L 472.29 384.972 Q 475.188 384.972 477.672 386.237 L 477.672 386.237 L 477.672 386.237 Q 480.156 387.502 481.812 389.664 L 481.812 389.664 L 481.812 389.664 Q 483.33 391.504 484.02 393.988 L 484.02 393.988 L 484.02 393.988 Q 484.434 395.46 484.434 397.116 L 484.434 397.116 L 484.434 397.116 Q 484.434 397.944 484.296 398.68 L 484.296 398.68 L 479.512 398.68 Z  M 472.29 389.71 L 472.29 389.71 L 472.29 389.71 Q 470.036 389.71 468.265 390.871 L 468.265 390.871 L 468.265 390.871 Q 466.494 392.031 465.574 393.942 L 465.574 393.942 L 476.292 393.942 L 479.006 393.942 L 479.006 393.942 Q 478.776 393.578 478.569 393.214 L 478.569 393.214 L 478.569 393.214 Q 478.362 392.85 478.132 392.532 L 478.132 392.532 L 478.132 392.532 Q 477.074 391.212 475.556 390.461 L 475.556 390.461 L 475.556 390.461 Q 474.038 389.71 472.29 389.71 Z  M 508.032 386.737 L 508.032 386.737 L 508.032 386.737 Q 509.596 387.759 510.7 389.292 L 510.7 389.292 L 508.032 391.403 L 507.02 392.228 L 507.02 392.228 Q 506.238 391.082 504.973 390.396 L 504.973 390.396 L 504.973 390.396 Q 503.708 389.71 502.236 389.71 L 502.236 389.71 L 502.236 389.71 Q 501.04 389.71 499.982 390.17 L 499.982 390.17 L 499.982 390.17 Q 498.924 390.63 498.142 391.412 L 498.142 391.412 L 498.142 391.412 Q 497.36 392.194 496.9 393.252 L 496.9 393.252 L 496.9 393.252 Q 496.44 394.31 496.44 395.506 L 496.44 395.506 L 496.44 404.246 L 496.44 409.168 L 491.702 409.168 L 491.702 395.48 L 491.702 384.972 L 496.44 384.972 L 496.44 386.737 L 496.44 386.737 Q 497.682 385.901 499.154 385.437 L 499.154 385.437 L 499.154 385.437 Q 500.626 384.972 502.236 384.972 L 502.236 384.972 L 502.236 384.972 Q 503.846 384.972 505.318 385.437 L 505.318 385.437 L 505.318 385.437 Q 506.79 385.901 508.032 386.737 Z  M 535.586 385.018 L 535.586 385.018 L 541.06 385.018 L 530.388 407.144 L 527.582 412.986 L 521.878 424.854 L 516.404 424.854 L 525.006 407.006 L 515.346 385.018 L 520.728 385.018 L 527.812 401.164 L 535.586 385.018 Z  M 68.761 404.476 L 68.761 404.476 L 68.761 404.476 Q 70.554 404.476 72.071 403.699 L 72.071 403.699 L 72.071 403.699 Q 73.589 402.921 74.6 401.637 L 74.6 401.637 L 78.326 404.523 L 78.326 404.523 Q 76.67 406.659 74.187 407.937 L 74.187 407.937 L 74.187 407.937 Q 71.703 409.214 68.761 409.214 L 68.761 409.214 L 68.761 409.214 Q 66.278 409.214 64.076 408.271 L 64.076 408.271 L 64.076 408.271 Q 61.874 407.328 60.206 405.672 L 60.206 405.672 L 60.206 405.672 Q 58.538 404.016 57.586 401.808 L 57.586 401.808 L 57.586 401.808 Q 56.634 399.6 56.634 397.07 L 56.634 397.07 L 56.634 397.07 Q 56.634 394.586 57.586 392.378 L 57.586 392.378 L 57.586 392.378 Q 58.538 390.17 60.206 388.514 L 60.206 388.514 L 60.206 388.514 Q 61.874 386.858 64.076 385.915 L 64.076 385.915 L 64.076 385.915 Q 66.278 384.972 68.761 384.972 L 68.761 384.972 L 68.761 384.972 Q 71.703 384.972 74.187 386.226 L 74.187 386.226 L 74.187 386.226 Q 76.67 387.481 78.326 389.664 L 78.326 389.664 L 74.6 392.55 L 74.6 392.55 Q 73.589 391.219 72.071 390.465 L 72.071 390.465 L 72.071 390.465 Q 70.554 389.71 68.761 389.71 L 68.761 389.71 L 68.761 389.71 Q 67.244 389.71 65.888 390.282 L 65.888 390.282 L 65.888 390.282 Q 64.533 390.853 63.524 391.859 L 63.524 391.859 L 63.524 391.859 Q 62.514 392.865 61.943 394.213 L 61.943 394.213 L 61.943 394.213 Q 61.372 395.562 61.372 397.07 L 61.372 397.07 L 61.372 397.07 Q 61.372 398.579 61.943 399.928 L 61.943 399.928 L 61.943 399.928 Q 62.514 401.276 63.524 402.282 L 63.524 402.282 L 63.524 402.282 Q 64.533 403.288 65.888 403.882 L 65.888 403.882 L 65.888 403.882 Q 67.244 404.476 68.761 404.476 Z  M 97.712 384.926 L 97.712 384.926 L 97.712 384.926 Q 100.242 384.926 102.45 385.869 L 102.45 385.869 L 102.45 385.869 Q 104.658 386.812 106.314 388.468 L 106.314 388.468 L 106.314 388.468 Q 107.97 390.124 108.913 392.332 L 108.913 392.332 L 108.913 392.332 Q 109.856 394.54 109.856 397.07 L 109.856 397.07 L 109.856 397.07 Q 109.856 399.6 108.913 401.808 L 108.913 401.808 L 108.913 401.808 Q 107.97 404.016 106.314 405.672 L 106.314 405.672 L 106.314 405.672 Q 104.658 407.328 102.45 408.271 L 102.45 408.271 L 102.45 408.271 Q 100.242 409.214 97.712 409.214 L 97.712 409.214 L 97.712 409.214 Q 95.182 409.214 92.974 408.271 L 92.974 408.271 L 92.974 408.271 Q 90.766 407.328 89.11 405.672 L 89.11 405.672 L 89.11 405.672 Q 87.454 404.016 86.511 401.808 L 86.511 401.808 L 86.511 401.808 Q 85.568 399.6 85.568 397.07 L 85.568 397.07 L 85.568 397.07 Q 85.568 394.54 86.511 392.332 L 86.511 392.332 L 86.511 392.332 Q 87.454 390.124 89.11 388.468 L 89.11 388.468 L 89.11 388.468 Q 90.766 386.812 92.974 385.869 L 92.974 385.869 L 92.974 385.869 Q 95.182 384.926 97.712 384.926 Z  M 97.735 404.476 L 97.735 404.476 L 97.735 404.476 Q 99.248 404.476 100.601 403.901 L 100.601 403.901 L 100.601 403.901 Q 101.954 403.326 102.963 402.314 L 102.963 402.314 L 102.963 402.314 Q 103.972 401.302 104.545 399.945 L 104.545 399.945 L 104.545 399.945 Q 105.118 398.588 105.118 397.07 L 105.118 397.07 L 105.118 397.07 Q 105.118 395.552 104.545 394.195 L 104.545 394.195 L 104.545 394.195 Q 103.972 392.838 102.963 391.826 L 102.963 391.826 L 102.963 391.826 Q 101.954 390.814 100.601 390.239 L 100.601 390.239 L 100.601 390.239 Q 99.248 389.664 97.735 389.664 L 97.735 389.664 L 97.735 389.664 Q 96.222 389.664 94.869 390.239 L 94.869 390.239 L 94.869 390.239 Q 93.516 390.814 92.507 391.826 L 92.507 391.826 L 92.507 391.826 Q 91.498 392.838 90.902 394.195 L 90.902 394.195 L 90.902 394.195 Q 90.306 395.552 90.306 397.07 L 90.306 397.07 L 90.306 397.07 Q 90.306 398.588 90.902 399.945 L 90.902 399.945 L 90.902 399.945 Q 91.498 401.302 92.507 402.314 L 92.507 402.314 L 92.507 402.314 Q 93.516 403.326 94.869 403.901 L 94.869 403.901 L 94.869 403.901 Q 96.222 404.476 97.735 404.476 Z  M 133.592 386.536 L 133.592 386.536 L 133.592 386.536 Q 135.779 388.008 137.054 390.331 L 137.054 390.331 L 137.054 390.331 Q 138.33 392.654 138.33 395.414 L 138.33 395.414 L 138.33 409.26 L 133.592 409.26 L 133.592 404.246 L 133.592 395.414 L 133.592 395.414 Q 133.592 394.218 133.13 393.137 L 133.13 393.137 L 133.13 393.137 Q 132.668 392.056 131.86 391.251 L 131.86 391.251 L 131.86 391.251 Q 131.052 390.446 129.99 389.986 L 129.99 389.986 L 129.99 389.986 Q 128.928 389.526 127.727 389.526 L 127.727 389.526 L 127.727 389.526 Q 126.526 389.526 125.441 389.986 L 125.441 389.986 L 125.441 389.986 Q 124.356 390.446 123.571 391.251 L 123.571 391.251 L 123.571 391.251 Q 122.786 392.056 122.324 393.137 L 122.324 393.137 L 122.324 393.137 Q 121.862 394.218 121.862 395.414 L 121.862 395.414 L 121.862 404.246 L 121.862 409.26 L 117.124 409.26 L 117.124 395.414 L 117.124 384.788 L 121.862 384.788 L 121.898 386.536 L 121.898 386.536 Q 123.141 385.708 124.637 385.248 L 124.637 385.248 L 124.637 385.248 Q 126.133 384.788 127.745 384.788 L 127.745 384.788 L 127.745 384.788 Q 129.356 384.788 130.853 385.248 L 130.853 385.248 L 130.853 385.248 Q 132.349 385.708 133.592 386.536 Z  M 159.26 378.21 L 159.26 378.21 L 159.26 382.948 L 154.844 382.948 L 154.844 409.26 L 150.106 409.26 L 150.106 382.948 L 145.644 382.948 L 145.644 378.21 L 150.106 378.21 L 150.106 369.194 L 154.844 369.194 L 154.844 378.21 L 159.26 378.21 Z  M 167.264 384.926 L 167.264 384.926 L 172.002 384.926 L 172.002 409.214 L 167.264 409.214 L 167.264 384.926 Z  M 172.002 382.442 L 167.264 382.442 L 167.264 377.704 L 172.002 377.704 L 172.002 382.442 Z  M 196.428 386.536 L 196.428 386.536 L 196.428 386.536 Q 198.615 388.008 199.89 390.331 L 199.89 390.331 L 199.89 390.331 Q 201.166 392.654 201.166 395.414 L 201.166 395.414 L 201.166 409.26 L 196.428 409.26 L 196.428 404.246 L 196.428 395.414 L 196.428 395.414 Q 196.428 394.218 195.966 393.137 L 195.966 393.137 L 195.966 393.137 Q 195.504 392.056 194.696 391.251 L 194.696 391.251 L 194.696 391.251 Q 193.888 390.446 192.826 389.986 L 192.826 389.986 L 192.826 389.986 Q 191.764 389.526 190.563 389.526 L 190.563 389.526 L 190.563 389.526 Q 189.362 389.526 188.277 389.986 L 188.277 389.986 L 188.277 389.986 Q 187.192 390.446 186.407 391.251 L 186.407 391.251 L 186.407 391.251 Q 185.622 392.056 185.16 393.137 L 185.16 393.137 L 185.16 393.137 Q 184.698 394.218 184.698 395.414 L 184.698 395.414 L 184.698 404.246 L 184.698 409.26 L 179.96 409.26 L 179.96 395.414 L 179.96 384.788 L 184.698 384.788 L 184.734 386.536 L 184.734 386.536 Q 185.977 385.708 187.473 385.248 L 187.473 385.248 L 187.473 385.248 Q 188.969 384.788 190.581 384.788 L 190.581 384.788 L 190.581 384.788 Q 192.192 384.788 193.689 385.248 L 193.689 385.248 L 193.689 385.248 Q 195.185 385.708 196.428 386.536 Z  M 224.856 385.018 L 229.594 385.018 L 229.594 398.772 L 229.594 398.772 Q 229.594 401.532 228.317 403.832 L 228.317 403.832 L 228.317 403.832 Q 227.039 406.132 224.856 407.558 L 224.856 407.558 L 224.856 407.558 Q 223.573 408.386 222.107 408.846 L 222.107 408.846 L 222.107 408.846 Q 220.641 409.306 219.037 409.306 L 219.037 409.306 L 219.037 409.306 Q 217.433 409.306 215.967 408.846 L 215.967 408.846 L 215.967 408.846 Q 214.501 408.386 213.218 407.558 L 213.218 407.558 L 213.218 407.558 Q 211.081 406.132 209.781 403.832 L 209.781 403.832 L 209.781 403.832 Q 208.48 401.532 208.48 398.772 L 208.48 398.772 L 208.48 385.018 L 213.218 385.018 L 213.218 389.986 L 213.218 398.772 L 213.218 398.772 Q 213.218 399.968 213.676 401.026 L 213.676 401.026 L 213.676 401.026 Q 214.134 402.084 214.913 402.866 L 214.913 402.866 L 214.913 402.866 Q 215.692 403.648 216.769 404.108 L 216.769 404.108 L 216.769 404.108 Q 217.846 404.568 219.037 404.568 L 219.037 404.568 L 219.037 404.568 Q 220.228 404.568 221.282 404.108 L 221.282 404.108 L 221.282 404.108 Q 222.336 403.648 223.138 402.866 L 223.138 402.866 L 223.138 402.866 Q 223.94 402.084 224.398 401.026 L 224.398 401.026 L 224.398 401.026 Q 224.856 399.968 224.856 398.772 L 224.856 398.772 L 224.856 389.986 L 224.856 385.018 Z  M 248.96 384.926 L 248.96 384.926 L 248.96 384.926 Q 251.49 384.926 253.698 385.869 L 253.698 385.869 L 253.698 385.869 Q 255.906 386.812 257.562 388.468 L 257.562 388.468 L 257.562 388.468 Q 259.218 390.124 260.161 392.332 L 260.161 392.332 L 260.161 392.332 Q 261.104 394.54 261.104 397.07 L 261.104 397.07 L 261.104 397.07 Q 261.104 399.6 260.161 401.808 L 260.161 401.808 L 260.161 401.808 Q 259.218 404.016 257.562 405.672 L 257.562 405.672 L 257.562 405.672 Q 255.906 407.328 253.698 408.271 L 253.698 408.271 L 253.698 408.271 Q 251.49 409.214 248.96 409.214 L 248.96 409.214 L 248.96 409.214 Q 246.43 409.214 244.222 408.271 L 244.222 408.271 L 244.222 408.271 Q 242.014 407.328 240.358 405.672 L 240.358 405.672 L 240.358 405.672 Q 238.702 404.016 237.759 401.808 L 237.759 401.808 L 237.759 401.808 Q 236.816 399.6 236.816 397.07 L 236.816 397.07 L 236.816 397.07 Q 236.816 394.54 237.759 392.332 L 237.759 392.332 L 237.759 392.332 Q 238.702 390.124 240.358 388.468 L 240.358 388.468 L 240.358 388.468 Q 242.014 386.812 244.222 385.869 L 244.222 385.869 L 244.222 385.869 Q 246.43 384.926 248.96 384.926 Z  M 248.983 404.476 L 248.983 404.476 L 248.983 404.476 Q 250.496 404.476 251.849 403.901 L 251.849 403.901 L 251.849 403.901 Q 253.202 403.326 254.211 402.314 L 254.211 402.314 L 254.211 402.314 Q 255.22 401.302 255.793 399.945 L 255.793 399.945 L 255.793 399.945 Q 256.366 398.588 256.366 397.07 L 256.366 397.07 L 256.366 397.07 Q 256.366 395.552 255.793 394.195 L 255.793 394.195 L 255.793 394.195 Q 255.22 392.838 254.211 391.826 L 254.211 391.826 L 254.211 391.826 Q 253.202 390.814 251.849 390.239 L 251.849 390.239 L 251.849 390.239 Q 250.496 389.664 248.983 389.664 L 248.983 389.664 L 248.983 389.664 Q 247.47 389.664 246.117 390.239 L 246.117 390.239 L 246.117 390.239 Q 244.764 390.814 243.755 391.826 L 243.755 391.826 L 243.755 391.826 Q 242.746 392.838 242.15 394.195 L 242.15 394.195 L 242.15 394.195 Q 241.554 395.552 241.554 397.07 L 241.554 397.07 L 241.554 397.07 Q 241.554 398.588 242.15 399.945 L 242.15 399.945 L 242.15 399.945 Q 242.746 401.302 243.755 402.314 L 243.755 402.314 L 243.755 402.314 Q 244.764 403.326 246.117 403.901 L 246.117 403.901 L 246.117 403.901 Q 247.47 404.476 248.983 404.476 Z  M 284.748 385.018 L 289.486 385.018 L 289.486 398.772 L 289.486 398.772 Q 289.486 401.532 288.209 403.832 L 288.209 403.832 L 288.209 403.832 Q 286.931 406.132 284.748 407.558 L 284.748 407.558 L 284.748 407.558 Q 283.465 408.386 281.999 408.846 L 281.999 408.846 L 281.999 408.846 Q 280.533 409.306 278.929 409.306 L 278.929 409.306 L 278.929 409.306 Q 277.325 409.306 275.859 408.846 L 275.859 408.846 L 275.859 408.846 Q 274.393 408.386 273.11 407.558 L 273.11 407.558 L 273.11 407.558 Q 270.973 406.132 269.673 403.832 L 269.673 403.832 L 269.673 403.832 Q 268.372 401.532 268.372 398.772 L 268.372 398.772 L 268.372 385.018 L 273.11 385.018 L 273.11 389.986 L 273.11 398.772 L 273.11 398.772 Q 273.11 399.968 273.568 401.026 L 273.568 401.026 L 273.568 401.026 Q 274.026 402.084 274.805 402.866 L 274.805 402.866 L 274.805 402.866 Q 275.584 403.648 276.661 404.108 L 276.661 404.108 L 276.661 404.108 Q 277.738 404.568 278.929 404.568 L 278.929 404.568 L 278.929 404.568 Q 280.12 404.568 281.174 404.108 L 281.174 404.108 L 281.174 404.108 Q 282.228 403.648 283.03 402.866 L 283.03 402.866 L 283.03 402.866 Q 283.832 402.084 284.29 401.026 L 284.29 401.026 L 284.29 401.026 Q 284.748 399.968 284.748 398.772 L 284.748 398.772 L 284.748 389.986 L 284.748 385.018 Z  M 310.094 397.99 L 310.094 397.99 L 310.094 397.99 Q 310.738 398.91 311.106 399.991 L 311.106 399.991 L 311.106 399.991 Q 311.474 401.072 311.428 402.268 L 311.428 402.268 L 311.428 402.268 Q 311.382 403.786 310.738 405.074 L 310.738 405.074 L 310.738 405.074 Q 310.094 406.362 309.036 407.328 L 309.036 407.328 L 309.036 407.328 Q 307.978 408.294 306.552 408.823 L 306.552 408.823 L 306.552 408.823 Q 305.126 409.352 303.562 409.306 L 303.562 409.306 L 303.562 409.306 Q 301.354 409.214 299.583 408.156 L 299.583 408.156 L 299.583 408.156 Q 297.812 407.098 296.892 405.35 L 296.892 405.35 L 300.848 402.59 L 300.848 402.59 Q 301.078 403.418 301.86 403.993 L 301.86 403.993 L 301.86 403.993 Q 302.642 404.568 303.7 404.568 L 303.7 404.568 L 303.7 404.568 Q 304.896 404.614 305.793 403.901 L 305.793 403.901 L 305.793 403.901 Q 306.69 403.188 306.69 402.13 L 306.69 402.13 L 306.69 402.13 Q 306.69 401.808 306.644 401.67 L 306.644 401.67 L 306.644 401.578 L 306.644 401.578 Q 306.598 401.486 306.598 401.417 L 306.598 401.417 L 306.598 401.417 Q 306.598 401.348 306.552 401.256 L 306.552 401.256 L 306.552 401.256 Q 306.23 400.474 305.356 399.968 L 305.356 399.968 L 305.356 399.968 Q 305.218 399.876 304.942 399.784 L 304.942 399.784 L 304.988 399.738 L 304.988 399.738 Q 304.344 399.37 303.562 399.025 L 303.562 399.025 L 303.562 399.025 Q 302.78 398.68 301.975 398.289 L 301.975 398.289 L 301.975 398.289 Q 301.17 397.898 300.388 397.461 L 300.388 397.461 L 300.388 397.461 Q 299.606 397.024 298.916 396.426 L 298.916 396.426 L 298.916 396.38 L 298.778 396.242 L 298.778 396.242 Q 297.812 395.322 297.26 394.103 L 297.26 394.103 L 297.26 394.103 Q 296.708 392.884 296.754 391.504 L 296.754 391.504 L 296.754 391.504 Q 296.8 390.124 297.398 388.928 L 297.398 388.928 L 297.398 388.928 Q 297.996 387.732 298.985 386.858 L 298.985 386.858 L 298.985 386.858 Q 299.974 385.984 301.308 385.478 L 301.308 385.478 L 301.308 385.478 Q 302.642 384.972 304.16 385.018 L 304.16 385.018 L 304.16 385.018 Q 306.138 385.11 307.725 385.984 L 307.725 385.984 L 307.725 385.984 Q 309.312 386.858 310.232 388.33 L 310.232 388.33 L 306.368 390.998 L 306.368 390.998 Q 306.092 390.492 305.471 390.124 L 305.471 390.124 L 305.471 390.124 Q 304.85 389.756 304.068 389.756 L 304.068 389.756 L 304.068 389.756 Q 303.01 389.71 302.251 390.262 L 302.251 390.262 L 302.251 390.262 Q 301.492 390.814 301.492 391.596 L 301.492 391.596 L 301.492 391.596 Q 301.492 391.826 301.538 391.918 L 301.538 391.918 L 301.538 391.918 Q 301.63 392.424 301.998 392.792 L 301.998 392.792 L 301.998 392.792 Q 302.366 393.16 302.918 393.39 L 302.918 393.39 L 302.918 393.39 Q 303.792 393.896 304.919 394.425 L 304.919 394.425 L 304.919 394.425 Q 306.046 394.954 307.196 395.598 L 307.196 395.598 L 307.196 395.598 Q 308.024 395.966 308.852 396.656 L 308.852 396.656 L 309.082 396.886 L 309.082 396.886 Q 309.542 397.3 310.094 397.99 Z " fill-rule="evenodd" fill="rgb(255,255,255)"/></g></svg>